<svg xmlns="http://www.w3.org/2000/svg" version="1.1" xmlns:xlink="http://www.w3.org/1999/xlink" xmlns:svgjs="http://svgjs.com/svgjs" width="256" height="256"><svg xmlns="http://www.w3.org/2000/svg" width="256" height="256" viewBox="0 0 100 100"><rect width="100" height="100" rx="20" fill="#ffffff"></rect><path fill="#000000" d="M49.82 81.95L49.82 81.95Q44.78 81.95 40.28 80.69Q35.78 79.43 32.27 76.86Q28.76 74.30 26.69 70.52Q24.62 66.74 24.53 61.70L24.53 61.70Q24.53 60.89 25.07 60.30Q25.61 59.72 26.42 59.72L26.42 59.72L36.77 59.72Q38.03 59.72 38.66 60.30Q39.29 60.89 39.65 62.15L39.65 62.15Q40.19 64.94 41.63 66.78Q43.07 68.63 45.28 69.44Q47.48 70.25 50.18 70.25L50.18 70.25Q55.31 70.25 58.01 66.97Q60.71 63.68 60.71 57.56L60.71 57.56L60.71 30.11L30.83 30.11Q29.93 30.11 29.30 29.48Q28.67 28.85 28.67 27.86L28.67 27.86L28.67 20.30Q28.67 19.31 29.30 18.68Q29.93 18.05 30.83 18.05L30.83 18.05L73.22 18.05Q74.21 18.05 74.84 18.68Q75.47 19.31 75.47 20.30L75.47 20.30L75.47 57.92Q75.47 65.66 72.23 71.02Q68.99 76.37 63.23 79.16Q57.47 81.95 49.82 81.95Z"></path></svg><style>@media (prefers-color-scheme: light) { :root { filter: none; } }
@media (prefers-color-scheme: dark) { :root { filter: invert(100%); } }
</style></svg>